<svg xmlns="http://www.w3.org/2000/svg" viewBox="0 0 24 24" width="24" height="24" fill="none">
  <circle cx="12" cy="12" r="11" fill="#25D366"/>
  <path d="M17.472 14.382c-.297-.149-1.758-.866-2.03-.965-.272-.099-.47-.148-.67.149-.197.297-.76.965-.93 1.163-.17.2-.34.225-.637.075-.296-.148-1.255-.462-2.39-1.475-.885-.79-1.48-1.725-1.65-2.02-.17-.297-.018-.458.13-.606.133-.131.296-.34.445-.51.148-.17.198-.283.298-.466.099-.184.05-.345-.02-.488-.07-.143-.63-1.534-.864-2.102-.227-.548-.46-.474-.636-.483l-.545-.01c-.177 0-.477.066-.727.32-.25.256-.953.995-.953 2.427 0 1.43.974 2.82 1.11 3.02.137.198 2.01 3.087 4.87 4.334 2.467 1.078 3.287 1.059 3.557.992.27-.069 1.748-.692 1.995-1.376.248-.684.248-1.272.174-1.382-.075-.11-.272-.177-.57-.326z" fill="#fff"/>
</svg>
